<svg width="89" height="105" viewBox="0 0 89 105" fill="none" xmlns="http://www.w3.org/2000/svg">
<path d="M60.3947 2.5V23.5526C60.3947 24.9485 60.9492 26.2872 61.9363 27.2742C62.9233 28.2613 64.262 28.8158 65.6579 28.8158H86.7105" stroke="black" stroke-width="4.16667" stroke-linecap="round" stroke-linejoin="round"/>
<path d="M13.0263 28.8158V13.0263C13.0263 10.2346 14.1354 7.55715 16.1094 5.58309C18.0835 3.60902 20.7609 2.5 23.5527 2.5H60.3948L86.7105 28.8158V86.7105C86.7105 89.5023 85.6015 92.1797 83.6275 94.1538C81.6534 96.1278 78.976 97.2368 76.1842 97.2368H49.8684" stroke="black" stroke-width="4.16667" stroke-linecap="round" stroke-linejoin="round"/>
<path d="M18.2895 76.1842C27.0098 76.1842 34.0789 69.115 34.0789 60.3947C34.0789 51.6744 27.0098 44.6052 18.2895 44.6052C9.56919 44.6052 2.5 51.6744 2.5 60.3947C2.5 69.115 9.56919 76.1842 18.2895 76.1842Z" stroke="#FD9A06" stroke-width="4.16667" stroke-linecap="round" stroke-linejoin="round"/>
<path d="M10.3947 76.1842L2.5 102.5L18.2895 94.6053L34.0789 102.5L26.1842 76.1842" stroke="#FD9A06" stroke-width="4.16667" stroke-linecap="round" stroke-linejoin="round"/>
</svg>
